#N canvas 2498 69 752 513 12;
#X text 27 14 ADSR controller;
#X text 84 202 attack level, f 7;
#X text 157 200 attack speed, f 6;
#X obj 139 174 vsl 15 128 0 1 0 0 empty empty empty 0 -9 0 10 -262144
-1 -1 17 1;
#X obj 208 174 vsl 15 128 0 1000 0 0 empty empty empty 0 -9 0 10 -262144
-1 -1 13 1;
#X obj 290 175 vsl 15 128 0 500 0 0 empty empty empty 0 -9 0 10 -262144
-1 -1 25 1;
#X obj 367 176 vsl 15 128 0 500 0 0 empty empty empty 0 -9 0 10 -262144
-1 -1 127 1;
#X text 229 204 sustain;
#X text 318 207 decay;
#X floatatom 162 175 5 0 0 0 - - -;
#X floatatom 236 175 5 0 0 0 - - -;
#X floatatom 321 178 5 0 0 0 - - -;
#X floatatom 97 175 5 0 0 0 - - -;
#X obj 315 75 inlet;
#X text 312 49 input: MobMuPlat Control Signal (For Smartphone Control)
;
#X obj 405 98 bng 15 250 50 0 empty empty empty 17 7 0 10 -262144 -1
-1;
#X obj 32 39 inlet;
#X text 78 38 input: trigger signal;
#X obj 129 345 pack f f f f, f 25;
#X msg 130 373 \$1 \$2 \, 0.5 100 \$3 \, 0 200 \$4;
#X obj 131 402 vline~;
#X obj 132 451 outlet~;
#X obj 315 115 route at_volume attack_sp sustain decay;
#X text 193 452 output: signal for being multiplied with other sounds
;
#X connect 3 0 12 0;
#X connect 3 0 18 0;
#X connect 4 0 9 0;
#X connect 4 0 18 1;
#X connect 5 0 10 0;
#X connect 5 0 18 2;
#X connect 6 0 11 0;
#X connect 6 0 18 3;
#X connect 13 0 15 0;
#X connect 13 0 22 0;
#X connect 16 0 3 0;
#X connect 16 0 4 0;
#X connect 16 0 5 0;
#X connect 16 0 6 0;
#X connect 18 0 19 0;
#X connect 19 0 20 0;
#X connect 20 0 21 0;
#X connect 22 0 3 0;
#X connect 22 1 4 0;
#X connect 22 2 5 0;
#X connect 22 3 6 0;
