#N canvas 555 471 1009 300 12;
#X msg 765 41 start;
#X msg 821 41 stop;
#X obj 615 121 writesf~ 2;
#X obj 819 127 writesf~ 2;
#X msg 82 69 start;
#X msg 38 70 stop;
#X obj 30 155 writesf~ 2;
#X obj 124 115 writesf~ 2;
#X floatatom 287 146 5 0 0 0 - - -;
#X obj 235 119 sig~;
#X msg 286 113 0;
#X msg 325 123 1;
#X msg 162 69 open record.wav;
#X msg 7 39 open input3.wav;
#X obj 441 144 writesf~ 2;
#X obj 486 76 adc~;
#X msg 442 43 open testerec.wav;
#X msg 541 85 start;
#X msg 543 111 stop;
#X msg 617 43 open filtered2.wav;
#X msg 868 40 open pulse2.wav;
#X obj 286 76 bng 15 250 50 0 empty empty empty 17 7 0 10 -262144 -1
-1;
#X obj 325 94 bng 15 250 50 0 empty empty empty 17 7 0 10 -262144 -1
-1;
#X obj 325 65 r trigger_off;
#X obj 285 37 r trigger_on;
#X obj 134 38 r~ sound_output;
#X obj 624 70 r~ lop_out;
#X obj 888 74 r~ sig_out;
#X connect 0 0 2 0;
#X connect 0 0 3 0;
#X connect 1 0 2 0;
#X connect 1 0 3 0;
#X connect 4 0 6 0;
#X connect 4 0 7 0;
#X connect 5 0 6 0;
#X connect 5 0 7 0;
#X connect 8 0 9 0;
#X connect 9 0 6 0;
#X connect 9 0 6 1;
#X connect 10 0 8 0;
#X connect 11 0 8 0;
#X connect 12 0 7 0;
#X connect 13 0 6 0;
#X connect 15 0 14 0;
#X connect 15 1 14 1;
#X connect 16 0 14 0;
#X connect 16 0 14 1;
#X connect 17 0 14 0;
#X connect 18 0 14 0;
#X connect 19 0 2 0;
#X connect 20 0 3 0;
#X connect 21 0 10 0;
#X connect 22 0 11 0;
#X connect 23 0 22 0;
#X connect 24 0 21 0;
#X connect 25 0 7 0;
#X connect 25 0 7 1;
#X connect 26 0 2 0;
#X connect 26 0 2 1;
#X connect 27 0 3 0;
#X connect 27 0 3 1;
