#N canvas 337 399 1054 525 12;
#X obj 433 276 tgl 15 0 empty empty empty 17 7 0 10 -262144 -1 -1 0
1;
#X obj 429 295 metro 50;
#X obj 356 276 snapshot~;
#X floatatom 355 304 5 0 0 0 - - -;
#X obj 209 304 osc~;
#X obj 208 274 *~;
#X obj 209 236 osc~;
#X floatatom 354 387 5 0 0 0 - - -;
#X obj 354 358 + 150;
#X obj 354 333 * 1000;
#X obj 208 331 *~;
#X floatatom 259 328 5 0 0 0 - - -;
#X obj 369 213 lop~ 0.8;
#X obj 371 246 s~ lop_out;
#X obj 442 322 r~ lop_out;
#X obj 442 186 r cutoff;
#X obj 207 362 *~;
#X obj 225 443 tgl 15 0 empty empty empty 17 7 0 10 -262144 -1 -1 0
1;
#X obj 239 415 route pwmsynth;
#X obj 97 241 vsl 15 128 0.1 1.5 0 0 empty empty empty 0 -9 0 10 -262144
-1 -1 0 1;
#X floatatom 49 300 5 0 0 0 - - -;
#X text 120 231 low pass cut-off freq., f 10;
#X obj 78 387 s cutoff;
#X obj 43 253 * 1.5;
#X obj 43 165 route cutoff;
#X obj 43 102 inlet;
#X obj 208 465 outlet~;
#X obj 76 138 s MMP;
#X obj 248 391 r MMP;
#X obj 209 188 inlet;
#X obj 430 356 tabwrite~ filtered;
#X floatatom 273 251 5 0 0 0 - - -;
#X text 90 100 input: MobMuPlat Control Signal (For Smartphone Control)
;
#X text 40 25 Continuous Parameter Control Using PWM-like signal;
#X text 40 46 And FM Synth Module;
#X text 176 159 Frequency Input;
#X obj 369 152 inlet~;
#X obj 278 213 s in;
#X obj 260 304 * 0.5;
#X connect 0 0 1 0;
#X connect 1 0 2 0;
#X connect 1 0 30 0;
#X connect 2 0 3 0;
#X connect 3 0 9 0;
#X connect 3 0 38 0;
#X connect 4 0 10 0;
#X connect 5 0 4 0;
#X connect 6 0 5 0;
#X connect 7 0 5 1;
#X connect 8 0 7 0;
#X connect 9 0 8 0;
#X connect 10 0 16 0;
#X connect 11 0 10 1;
#X connect 12 0 2 0;
#X connect 12 0 13 0;
#X connect 14 0 30 0;
#X connect 15 0 12 1;
#X connect 16 0 26 0;
#X connect 17 0 16 1;
#X connect 18 0 17 0;
#X connect 19 0 22 0;
#X connect 19 0 20 0;
#X connect 23 0 19 0;
#X connect 24 0 23 0;
#X connect 25 0 24 0;
#X connect 25 0 27 0;
#X connect 28 0 18 0;
#X connect 29 0 6 0;
#X connect 29 0 31 0;
#X connect 29 0 37 0;
#X connect 36 0 12 0;
#X connect 38 0 11 0;
