#N canvas 1600 69 1920 1011 12;
#X text 176 11 OSC Message Parsing;
#X floatatom 54 497 5 0 0 0 - - -;
#X obj 55 175 udpreceive 9005;
#X obj 55 204 unpackOSC;
#X obj 55 233 routeOSC /data;
#X msg 216 170 devices;
#X obj 187 293 slipdec;
#X obj 186 317 unpackOSC;
#X obj 186 345 routeOSC /data;
#X msg 227 201 open 32;
#X msg 238 229 close 32;
#X obj 187 266 comport 32 115200;
#X floatatom 360 447 5 0 0 0 - - -;
#X obj 360 407 /;
#X text 454 142 check reception speed, f 9;
#X msg 360 377 1;
#X floatatom 405 416 5 0 0 0 - - -;
#X obj 362 342 / 1000;
#X text 405 445 sample rate (Hz), f 7;
#X text 9 93 Port 32 for Serial Comport - (Used on Arduino IDE on Linux)
;
#X text 8 47 PORT 9005 for receiving UDP Packages Adjust on Udp.beginPacket
method inside the ESP32 code for different values.;
#X text 14 11 OSC RECEIVER MODULE;
#X obj 54 535 outlet;
#X text 214 147 Serial Data;
#X text 52 153 Wifi Data;
#X obj 360 482 outlet;
#X obj 392 154 bng 15 250 50 0 empty empty empty 17 7 0 10 -262144
-1 -1;
#X obj 363 287 timer;
#X obj 391 189 t b b;
#X obj 376 226 bng 15 250 50 0 empty empty empty 17 7 0 10 -262144
-1 -1;
#X obj 411 225 bng 15 250 50 0 empty empty empty 17 7 0 10 -262144
-1 -1;
#X obj 405 380 float;
#X obj 419 318 float;
#X floatatom 418 344 8 0 0 0 - - -;
#X obj 482 387 outlet;
#X text 540 372 time elapsed between two samples (ms);
#X connect 1 0 22 0;
#X connect 2 0 3 0;
#X connect 3 0 4 0;
#X connect 4 0 1 0;
#X connect 4 0 26 0;
#X connect 5 0 11 0;
#X connect 6 0 7 0;
#X connect 7 0 8 0;
#X connect 8 0 1 0;
#X connect 8 0 26 0;
#X connect 9 0 11 0;
#X connect 10 0 11 0;
#X connect 11 0 6 0;
#X connect 12 0 25 0;
#X connect 13 0 12 0;
#X connect 15 0 13 0;
#X connect 16 0 13 1;
#X connect 17 0 15 0;
#X connect 17 0 31 0;
#X connect 26 0 28 0;
#X connect 27 0 17 0;
#X connect 27 0 32 0;
#X connect 28 0 29 0;
#X connect 28 1 30 0;
#X connect 29 0 27 0;
#X connect 30 0 27 1;
#X connect 31 0 16 0;
#X connect 32 0 33 0;
#X connect 33 0 34 0;
