#N canvas 853 276 581 662 12;
#X obj 74 518 metro 50;
#X obj 89 493 tgl 15 0 empty empty empty 17 7 0 10 -262144 -1 -1 1
1;
#X obj 66 434 freeverb~;
#X obj 87 466 dac~;
#X obj 64 542 tabwrite~ reverb_out;
#X msg 34 321 wet \$1;
#X msg 95 320 dry \$1;
#X msg 155 320 roomsize \$1;
#X obj 60 167 vsl 15 128 0 1 0 0 empty empty empty 0 -9 0 10 -262144
-1 -1 0 1;
#X obj 157 165 vsl 15 128 0 1 0 0 empty empty empty 0 -9 0 10 -262144
-1 -1 0 1;
#X obj 106 166 vsl 15 128 0 1 0 0 empty empty empty 0 -9 0 10 -262144
-1 -1 0 1;
#X obj 32 102 route wet dry roomsize, f 17;
#X obj 31 62 inlet;
#X text 28 21 REVERB CONTROL MODULE;
#X text 90 60 input: MobMuPlat Control Signal (For Smartphone Control)
;
#X obj 182 358 inlet~;
#X text 236 358 Sound Output;
#X text 131 468 Sound output with reverb;
#X obj 380 335 loadbang;
#X connect 0 0 4 0;
#X connect 1 0 0 0;
#X connect 2 0 3 0;
#X connect 2 0 4 0;
#X connect 2 1 3 1;
#X connect 5 0 2 0;
#X connect 6 0 2 0;
#X connect 7 0 2 0;
#X connect 8 0 5 0;
#X connect 9 0 7 0;
#X connect 10 0 6 0;
#X connect 11 0 8 0;
#X connect 11 1 10 0;
#X connect 11 2 9 0;
#X connect 12 0 11 0;
#X connect 15 0 2 0;
#X connect 15 0 2 1;
#X connect 18 0 1 0;
