#N canvas 610 269 450 300 12;
#X obj 200 23 inlet;
#X obj 191 264 outlet;
#X obj 201 65 t b b;
#X floatatom 191 133 8 0 0 0 - - -;
#X obj 189 222 /;
#X text 253 248 sample rate, f 7;
#X text 246 40 check reception speed, f 9;
#X obj 191 99 timer;
#X msg 189 192 1;
#X floatatom 232 192 5 0 0 0 - - -;
#X obj 191 157 / 1000;
#X connect 0 0 2 0;
#X connect 2 0 7 0;
#X connect 2 1 7 1;
#X connect 3 0 10 0;
#X connect 4 0 1 0;
#X connect 7 0 3 0;
#X connect 8 0 4 0;
#X connect 9 0 4 1;
#X connect 10 0 9 0;
#X connect 10 0 8 0;
