#N canvas 1600 60 1920 1020 12;
#X text 8 -693 Patch Created for PD Vanilla. Add import mrpeach object
if using purr-data or pd-extended;
#X floatatom 179 -631 10 0 0 0 - - -;
#X obj 524 -154 metro 50;
#X obj 524 -179 tgl 15 0 empty empty empty 17 7 0 10 -262144 -1 -1
1 1;
#X obj 524 -125 tabwrite~ out;
#N canvas 0 50 450 250 (subpatch) 0;
#X array out 100 float 3;
#A 0 0 0 0 0 0 0 0 0 0 0 0 0 0 0 0 0 0 0 0 0 0 0 0 0 0 0 0 0 0 0 0
0 0 0 0 0 0 0 0 0 0 0 0 0 0 0 0 0 0 0 0 0 0 0 0 0 0 0 0 0 0 0 0 0 0
0 0 0 0 0 0 0 0 0 0 0 0 0 0 0 0 0 0 0 0 0 0 0 0 0 0 0 0 0 0 0 0 0 0
0;
#X coords 0 1 100 -1 200 140 1;
#X restore 628 -191 graph;
#X msg 1005 -442 0;
#X text 1007 -421 mute;
#X text 991 -329 volume;
#X floatatom 272 -565 5 0 0 0 - - -;
#N canvas 0 50 450 250 (subpatch) 0;
#X array reverb_out 100 float 3;
#A 0 0 0 0 0 0 0 0 0 0 0 0 0 0 0 0 0 0 0 0 0 0 0 0 0 0 0 0 0 0 0 0
0 0 0 0 0 0 0 0 0 0 0 0 0 0 0 0 0 0 0 0 0 0 0 0 0 0 0 0 0 0 0 0 0 0
0 0 0 0 0 0 0 0 0 0 0 0 0 0 0 0 0 0 0 0 0 0 0 0 0 0 0 0 0 0 0 0 0 0
0;
#X coords 0 1 100 -1 200 140 1 0 0;
#X restore 150 -245 graph;
#X obj 1206 -484 bng 15 250 50 0 empty empty empty 17 7 0 10 -262144
-1 -1;
#X obj 1072 -539 hsl 128 15 0 1 0 0 empty empty empty -2 -8 0 10 -262144
-1 -1 6513 1;
#X obj 1203 -520 moses \$2;
#X text 482 -620 frequency;
#X obj 358 -100 dac~;
#X text 1148 -306 attack level, f 7;
#X text 1221 -308 attack speed, f 6;
#X text 1197 -406 ADSR envelope;
#X obj 668 -423 noise~;
#X obj 493 -260 +~;
#X obj 176 -597 bng 15 250 50 0 empty empty empty 17 7 0 10 -262144
-1 -1;
#X obj 565 -354 osc~;
#X obj 275 -293 *~;
#X obj 391 -298 *~;
#X obj 667 -300 *~;
#X obj 564 -298 *~;
#X obj 1309 -483 bng 15 250 50 0 empty empty empty 17 7 0 10 -262144
-1 -1;
#X obj 189 -531 bng 15 250 50 0 empty empty empty 17 7 0 10 -262144
-1 -1;
#X obj 31 -92 metro 50;
#X obj 46 -117 tgl 15 0 empty empty empty 17 7 0 10 -262144 -1 -1 1
1;
#X obj 987 -615 hradio 15 1 0 2 empty empty empty 0 -8 0 10 -262144
-1 -1 0;
#X floatatom 988 -592 5 0 0 0 - - -;
#X obj 1309 -520 moses \$2;
#X floatatom 1220 -571 5 0 0 0 - - -;
#X floatatom 1273 -571 5 0 0 0 - - -;
#X obj 1218 -598 demux 0 1;
#X obj 987 -564 bng 15 250 50 0 empty empty empty 17 7 0 10 -262144
-1 -1;
#X obj 388 -166 *~ 0.75;
#X text 795 -673 trigger select;
#X text 797 -653 0 - trigger when touched;
#X text 798 -637 1 -mute when touched;
#X obj 12 -172 freeverb~;
#X obj 60 -139 dac~;
#X msg 757 -304 wet \$1;
#X msg 818 -305 dry \$1;
#X msg 875 -306 roomsize \$1;
#X obj 432 -576 mtof;
#X floatatom 431 -547 5 0 0 0 - - -;
#X obj 608 -661 udpreceive 54321;
#X obj 608 -635 oscparse;
#X obj 608 -610 list trim;
#X obj 444 -596 hsl 128 15 21 108 0 0 empty empty empty -2 -8 0 10
-262144 -1 -1 0 1;
#X obj 439 -623 + 21;
#X obj 439 -651 route frequency;
#X floatatom 555 -651 5 0 0 0 - - -;
#X obj 886 -520 route wet dry roomsize volume, f 17;
#X obj 586 -550 route square triangle sine noise;
#X obj 1203 -334 vsl 15 128 0 1 0 0 empty empty empty 0 -9 0 10 -262144
-1 -1 0 1;
#X obj 1272 -334 vsl 15 128 0 1000 0 0 empty empty empty 0 -9 0 10
-262144 -1 -1 300 1;
#X obj 1354 -333 vsl 15 128 0 500 0 0 empty empty empty 0 -9 0 10 -262144
-1 -1 76 1;
#X obj 1431 -332 vsl 15 128 0 500 0 0 empty empty empty 0 -9 0 10 -262144
-1 -1 914 1;
#X text 1293 -304 sustain;
#X text 1382 -301 decay;
#X floatatom 1226 -333 5 0 0 0 - - -;
#X floatatom 1300 -333 5 0 0 0 - - -;
#X floatatom 1385 -330 5 0 0 0 - - -;
#X floatatom 1161 -333 5 0 0 0 - - -;
#X obj 363 -462 vsl 15 128 0 1 0 0 empty empty empty 0 -9 0 10 -262144
-1 -1 1021 1;
#X obj 745 -460 vsl 15 128 0 1 0 0 empty empty empty 0 -9 0 10 -262144
-1 -1 81 1;
#X obj 613 -461 vsl 15 128 0 1 0 0 empty empty empty 0 -9 0 10 -262144
-1 -1 25 1;
#X obj 499 -462 vsl 15 128 0 1 0 0 empty empty empty 0 -9 0 10 -262144
-1 -1 41 1;
#X text 679 -365 noise amount, f 7;
#X obj 787 -460 vsl 15 128 0 1 0 0 empty empty empty 0 -9 0 10 -262144
-1 -1 955 1;
#X obj 876 -464 vsl 15 128 0 1 0 0 empty empty empty 0 -9 0 10 -262144
-1 -1 853 1;
#X obj 830 -462 vsl 15 128 0 1 0 0 empty empty empty 0 -9 0 10 -262144
-1 -1 1024 1;
#X obj 976 -460 vsl 15 128 0 1 0 0 empty empty empty 0 -9 0 10 -262144
-1 -1 75 1;
#X floatatom 976 -307 5 0 0 0 - - -;
#X obj 274 -370 square_wave;
#X obj 394 -373 triangle_wave;
#N canvas 0 50 450 250 (subpatch) 0;
#X array out3 1000 float 3;
#A 0 0 0 0 0 0 0 0 0 0 0 0 0 0 0 0 0 0 0 0 0 0 0 0 0 0 0 0 0 0 0 0
0 0 0 0 0 0 0 0 0 0 0 0 0 0 0 0 0 0 0 0 0 0 0 0 0 0 0 0 0 0 0 0 0 0
0 0 0 0 0 0 0 0 0 0 0 0 0 0 0 0 0 0 0 0 0 0 0 0 0 0 0 0 0 0 0 0 0 0
0 0 0 0 0 0 0 0 0 0 0 0 0 0 0 0 0 0 0 0 0 0 0 0 0 0 0 0 0 0 0 0 0 0
0 0 0 0 0 0 0 0 0 0 0 0 0 0 0 0 0 0 0 0 0 0 0 0 0 0 0 0 0 0 0 0 0 0
0 0 0 0 0 0 0 0 0 0 0 0 0 0 0 0 0 0 0 0 0 0 0 0 0 0 0 0 0 0 0 0 0 0
0 0 0 0 0 0 0 0 0 0 0 0 0 0 0 0 0 0 0 0 0 0 0 0 0 0 0 0 0 0 0 0 0 0
0 0 0 0 0 0 0 0 0 0 0 0 0 0 0 0 0 0 0 0 0 0 0 0 0 0 0 0 0 0 0 0 0 0
0 0 0 0 0 0 0 0 0 0 0 0 0 0 0 0 0 0 0 0 0 0 0 0 0 0 0 0 0 0 0 0 0 0
0 0 0 0 0 0 0 0 0 0 0 0 0 0 0 0 0 0 0 0 0 0 0 0 0 0 0 0 0 0 0 0 0 0
0 0 0 0 0 0 0 0 0 0 0 0 0 0 0 0 0 0 0 0 0 0 0 0 0 0 0 0 0 0 0 0 0 0
0 0 0 0 0 0 0 0 0 0 0 0 0 0 0 0 0 0 0 0 0 0 0 0 0 0 0 0 0 0 0 0 0 0
0 0 0 0 0 0 0 0 0 0 0 0 0 0 0 0 0 0 0 0 0 0 0 0 0 0 0 0 0 0 0 0 0 0
0 0 0 0 0 0 0 0 0 0 0 0 0 0 0 0 0 0 0 0 0 0 0 0 0 0 0 0 0 0 0 0 0 0
0 0 0 0 0 0 0 0 0 0 0 0 0 0 0 0 0 0 0 0 0 0 0 0 0 0 0 0 0 0 0 0 0 0
0 0 0 0 0 0 0 0 0 0 0 0 0 0 0 0 0 0 0 0 0 0 0 0 0 0 0 0 0 0 0 0 0 0
0 0 0 0 0 0 0 0 0 0 0 0 0 0 0 0 0 0 0 0 0 0 0 0 0 0 0 0 0 0 0 0 0 0
0 0 0 0 0 0 0 0 0 0 0 0 0 0 0 0 0 0 0 0 0 0 0 0 0 0 0 0 0 0 0 0 0 0
0 0 0 0 0 0 0 0 0 0 0 0 0 0 0 0 0 0 0 0 0 0 0 0 0 0 0 0 0 0 0 0 0 0
0 0 0 0 0 0 0 0 0 0 0 0 0 0 0 0 0 0 0 0 0 0 0 0 0 0 0 0 0 0 0 0 0 0
0 0 0 0 0 0 0 0 0 0 0 0 0 0 0 0 0 0 0 0 0 0 0 0 0 0 0 0 0 0 0 0 0 0
0 0 0 0 0 0 0 0 0 0 0 0 0 0 0 0 0 0 0 0 0 0 0 0 0 0 0 0 0 0 0 0 0 0
0 0 0 0 0 0 0 0 0 0 0 0 0 0 0 0 0 0 0 0 0 0 0 0 0 0 0 0 0 0 0 0 0 0
0 0 0 0 0 0 0 0 0 0 0 0 0 0 0 0 0 0 0 0 0 0 0 0 0 0 0 0 0 0 0 0 0 0
0 0 0 0 0 0 0 0 0 0 0 0 0 0 0 0 0 0 0 0 0 0 0 0 0 0 0 0 0 0 0 0 0 0
0 0 0 0 0 0 0 0 0 0 0 0 0 0 0 0 0 0 0 0 0 0 0 0 0 0 0 0 0 0 0 0 0 0
0 0 0 0 0 0 0 0 0 0 0 0 0 0 0 0 0 0 0 0 0 0 0 0 0 0 0 0 0 0 0 0 0 0
0 0 0 0 0 0 0 0 0 0 0 0 0 0 0 0 0 0 0 0 0 0 0 0 0 0 0 0 0 0 0 0 0 0
0 0 0 0 0 0 0 0 0 0 0 0 0 0 0 0 0 0 0 0 0 0 0 0 0 0 0 0 0 0 0 0 0 0
0 0 0 0 0 0 0 0 0 0 0 0 0 0 0 0 0;
#X coords 0 1 1000 -1 200 140 1 0 0;
#X restore 1326 9 graph;
#X obj 1219 -23 tgl 15 0 empty empty empty 17 7 0 10 -262144 -1 -1
1 1;
#X obj 1215 58 tabwrite~ out3;
#X msg 1421 -602 1;
#X msg 1473 -601 0;
#X floatatom 1421 -555 5 0 0 0 - - -;
#X obj 1418 -526 sig~;
#X obj 1215 -4 metro 50;
#X obj 1142 -23 snapshot~;
#X floatatom 1141 5 5 0 0 0 - - -;
#X obj 667 -398 hip~ \$1;
#X text 1082 -563 sensitivity;
#X obj 987 -644 route trigger sensitivity;
#N canvas 0 50 450 250 (subpatch) 0;
#X array pwm 100 float 3;
#A 0 0 0 0 0 0 0 0 0 0 0 0 0 0 0 0 0 0 0 0 0 0 0 0 0 0 0 0 0 0 0 0
0 0 0 0 0 0 0 0 0 0 0 0 0 0 0 0 0 0 0 0 0 0 0 0 0 0 0 0 0 0 0 0 0 0
0 0 0 0 0 0 0 0 0 0 0 0 0 0 0 0 0 0 0 0 0 0 0 0 0 0 0 0 0 0 0 0 0 0
0;
#X coords 0 1 100 -1 200 140 1;
#X restore 1327 -148 graph;
#X obj 1471 -549 tgl 15 0 empty empty empty 17 7 0 10 -262144 -1 -1
1 1;
#X obj 1472 -524 metro 50;
#X obj 1442 -489 tabwrite~ pwm;
#X msg 769 -20 start;
#X msg 825 -20 stop;
#X obj 619 60 writesf~ 2;
#X obj 823 66 writesf~ 2;
#X msg 86 8 start;
#X msg 42 9 stop;
#X obj 34 94 writesf~ 2;
#X obj 128 54 writesf~ 2;
#X floatatom 291 85 5 0 0 0 - - -;
#X obj 239 58 sig~;
#X msg 290 52 0;
#X msg 329 62 1;
#X obj 844 -83 read_sound;
#X msg 166 8 open record.wav;
#X msg 11 -22 open input3.wav;
#X obj 445 83 writesf~ 2;
#X obj 490 15 adc~;
#X msg 446 -18 open testerec.wav;
#X msg 545 24 start;
#X msg 547 50 stop;
#X msg 621 -18 open filtered2.wav;
#X msg 872 -21 open pulse2.wav;
#X obj 34 -621 udpreceive 9005;
#X obj 33 -578 unpackOSC;
#X obj 32 -533 routeOSC /data;
#X floatatom 1069 -480 5 0 0 0 - - -;
#X text 273 -638 Calibration factor, f 11;
#X msg 11 -501 devices;
#X obj 10 -377 slipdec;
#X obj 10 -347 unpackOSC;
#X obj 10 -318 routeOSC /data;
#X msg 33 -469 open 32;
#X msg 60 -447 close 32;
#X obj 12 -412 comport 32 115200;
#X obj 995 5 osc~;
#X obj 994 -25 *~;
#X obj 995 -63 osc~;
#X floatatom 1140 88 5 0 0 0 - - -;
#X obj 1140 59 + 150;
#X obj 1140 34 * 1000;
#X obj 290 15 bng 15 250 50 0 empty empty empty 17 7 0 10 -262144 -1
-1;
#X obj 329 33 bng 15 250 50 0 empty empty empty 17 7 0 10 -262144 -1
-1;
#X obj 189 -501 sample_rate;
#X floatatom 189 -475 5 0 0 0 - - -;
#X obj 994 32 *~;
#X floatatom 1045 29 5 0 0 0 - - -;
#X obj 1224 -173 adsr_pack;
#X obj 365 -261 *~;
#X obj 1155 -86 lop~ 0.8;
#X obj 1518 -334 vsl 15 128 0.1 1.5 0 0 empty empty empty 0 -9 0 10
-262144 -1 -1 7700 1;
#X floatatom 1466 -296 5 0 0 0 - - -;
#X obj 843 -188 delay 60;
#X obj 272 -538 s sensor_read;
#X obj 1218 -661 r sensor_read;
#X floatatom 1218 -634 5 0 0 0 - - -;
#X obj 757 -266 s reverb_control;
#X obj 12 -241 r reverb_control;
#X obj 422 -524 s osc_freq;
#X obj 846 -55 s~ readsound;
#X obj 399 -223 r~ readsound;
#X obj 976 -279 s vol_ctl;
#X obj 586 -224 r vol_ctl;
#X obj 910 124 s~ pwm_synth;
#X obj 491 -224 r~ pwm_synth;
#X obj 995 -92 r osc_freq;
#X obj 274 -436 r osc_freq;
#X floatatom 274 -410 5 0 0 0 - - -;
#X obj 395 -443 r osc_freq;
#X floatatom 395 -417 5 0 0 0 - - -;
#X obj 533 -424 r osc_freq;
#X floatatom 533 -398 5 0 0 0 - - -;
#X obj 605 -574 s listtrim;
#X obj 1094 -413 r listtrim;
#X obj 439 -677 r listtrim;
#X obj 987 -669 r listtrim;
#X obj 886 -546 r listtrim;
#X obj 1206 -463 s trigger_on;
#X obj 1422 -670 r trigger_on;
#X obj 1309 -461 s trigger_off;
#X obj 329 4 r trigger_off;
#X obj 289 -24 r trigger_on;
#X obj 1224 -147 s~ adsr;
#X obj 434 -291 r~ adsr;
#X obj 400 -119 s~ sound_output;
#X obj 138 -23 r~ sound_output;
#X obj 30 -208 r~ sound_output;
#X obj 10 -64 tabwrite~ reverb_out;
#X obj 1157 -53 s~ lop_out;
#X obj 628 9 r~ lop_out;
#X obj 1420 -456 s~ sig_out;
#X obj 892 13 r~ sig_out;
#X obj 843 -213 r trigger_off;
#X obj 1435 -640 r trigger_off;
#X text 1454 -265 low pass cut-off freq., f 10;
#X text 833 -235 SOUND SAMPLE PLAY;
#X text 534 -449 SINE WAVE;
#X obj 1134 -120 r~ sig_out;
#X obj 1228 23 r~ lop_out;
#X obj 1077 -516 s sensitivity;
#X obj 1317 -573 r sensitivity;
#X obj 1096 -379 r trigger_on;
#X obj 1458 -187 s cutoff;
#X obj 1215 -121 r cutoff;
#X obj 993 63 *~;
#X obj 1045 4 * 0.5;
#X obj 933 -148 vradio 15 1 0 4 empty empty empty 0 -8 0 10 -262144
-1 -1 0;
#X text 873 -151 hi-hat;
#X text 873 -135 zabumba;
#X text 873 -119 shaker;
#X obj 1200 -379 route at_volume attack_sp sustain decay cutoff;
#X obj 966 -235 r listtrim;
#X msg 969 -175 0;
#X msg 1009 -174 1;
#X msg 1047 -173 2;
#X obj 1011 126 tgl 15 0 empty empty empty 17 7 0 10 -262144 -1 -1
1 1;
#X obj 272 -594 / 23000;
#X msg 1006 -469 0.005;
#X text 863 -106 no sample;
#X obj 951 -202 route hihat zabumba shaker nosample;
#X msg 1083 -172 3;
#X obj 1066 -228 bng 15 250 50 0 empty empty empty 17 7 0 10 -262144
-1 -1;
#X obj 695 -594 print \$1;
#X obj 1464 -322 * 1.5;
#X obj 1034 74 r listtrim;
#X obj 1025 98 route pwmsynth;
#X connect 1 0 21 0;
#X connect 1 0 212 0;
#X connect 2 0 4 0;
#X connect 3 0 2 0;
#X connect 6 0 76 0;
#X connect 9 0 149 0;
#X connect 11 0 173 0;
#X connect 12 0 122 0;
#X connect 12 0 195 0;
#X connect 13 0 27 0;
#X connect 13 1 11 0;
#X connect 19 0 90 0;
#X connect 20 0 144 0;
#X connect 22 0 26 0;
#X connect 23 0 144 0;
#X connect 24 0 144 0;
#X connect 25 0 20 1;
#X connect 26 0 20 0;
#X connect 27 0 175 0;
#X connect 28 0 139 0;
#X connect 29 0 183 0;
#X connect 30 0 29 0;
#X connect 31 0 32 0;
#X connect 31 0 36 1;
#X connect 32 0 37 0;
#X connect 33 0 11 0;
#X connect 33 1 27 0;
#X connect 34 0 13 0;
#X connect 35 0 33 0;
#X connect 36 0 34 0;
#X connect 36 1 35 0;
#X connect 37 0 12 0;
#X connect 38 0 15 0;
#X connect 38 0 15 1;
#X connect 38 0 4 0;
#X connect 38 0 180 0;
#X connect 42 0 43 0;
#X connect 42 0 183 0;
#X connect 42 1 43 1;
#X connect 44 0 152 0;
#X connect 45 0 152 0;
#X connect 46 0 152 0;
#X connect 47 0 48 0;
#X connect 48 0 154 0;
#X connect 49 0 50 0;
#X connect 50 0 51 0;
#X connect 51 0 57 0;
#X connect 51 0 168 0;
#X connect 51 0 218 0;
#X connect 52 0 47 0;
#X connect 53 0 52 0;
#X connect 54 0 55 0;
#X connect 54 0 53 0;
#X connect 56 0 73 0;
#X connect 56 1 75 0;
#X connect 56 2 74 0;
#X connect 56 3 76 0;
#X connect 57 0 68 0;
#X connect 57 1 71 0;
#X connect 57 2 70 0;
#X connect 57 3 69 0;
#X connect 58 0 67 0;
#X connect 58 0 143 0;
#X connect 59 0 64 0;
#X connect 59 0 143 1;
#X connect 60 0 65 0;
#X connect 60 0 143 2;
#X connect 61 0 66 0;
#X connect 61 0 143 3;
#X connect 68 0 23 1;
#X connect 69 0 25 1;
#X connect 70 0 26 1;
#X connect 71 0 24 1;
#X connect 73 0 44 0;
#X connect 74 0 46 0;
#X connect 75 0 45 0;
#X connect 76 0 77 0;
#X connect 77 0 157 0;
#X connect 78 0 23 0;
#X connect 79 0 24 0;
#X connect 81 0 87 0;
#X connect 83 0 85 0;
#X connect 84 0 85 0;
#X connect 85 0 86 0;
#X connect 86 0 96 0;
#X connect 86 0 186 0;
#X connect 87 0 82 0;
#X connect 87 0 88 0;
#X connect 88 0 89 0;
#X connect 89 0 136 0;
#X connect 89 0 201 0;
#X connect 90 0 25 0;
#X connect 92 0 31 0;
#X connect 92 1 12 0;
#X connect 94 0 95 0;
#X connect 95 0 96 0;
#X connect 97 0 99 0;
#X connect 97 0 100 0;
#X connect 98 0 99 0;
#X connect 98 0 100 0;
#X connect 101 0 103 0;
#X connect 101 0 104 0;
#X connect 102 0 103 0;
#X connect 102 0 104 0;
#X connect 105 0 106 0;
#X connect 106 0 103 0;
#X connect 106 0 103 1;
#X connect 107 0 105 0;
#X connect 108 0 105 0;
#X connect 109 0 155 0;
#X connect 110 0 104 0;
#X connect 111 0 103 0;
#X connect 113 0 112 0;
#X connect 113 1 112 1;
#X connect 114 0 112 0;
#X connect 114 0 112 1;
#X connect 115 0 112 0;
#X connect 116 0 112 0;
#X connect 117 0 99 0;
#X connect 118 0 100 0;
#X connect 119 0 120 0;
#X connect 120 0 28 0;
#X connect 120 0 121 0;
#X connect 121 0 1 0;
#X connect 124 0 130 0;
#X connect 125 0 126 0;
#X connect 126 0 127 0;
#X connect 126 0 28 0;
#X connect 127 0 1 0;
#X connect 128 0 130 0;
#X connect 129 0 130 0;
#X connect 130 0 125 0;
#X connect 131 0 141 0;
#X connect 132 0 131 0;
#X connect 133 0 132 0;
#X connect 134 0 132 1;
#X connect 135 0 134 0;
#X connect 136 0 135 0;
#X connect 137 0 107 0;
#X connect 138 0 108 0;
#X connect 139 0 140 0;
#X connect 141 0 200 0;
#X connect 142 0 141 1;
#X connect 143 0 178 0;
#X connect 144 0 38 0;
#X connect 145 0 88 0;
#X connect 145 0 184 0;
#X connect 146 0 198 0;
#X connect 146 0 147 0;
#X connect 148 0 109 0;
#X connect 148 0 202 0;
#X connect 150 0 151 0;
#X connect 151 0 36 0;
#X connect 153 0 42 0;
#X connect 156 0 38 0;
#X connect 158 0 38 1;
#X connect 160 0 38 0;
#X connect 161 0 133 0;
#X connect 162 0 163 0;
#X connect 163 0 78 0;
#X connect 164 0 165 0;
#X connect 165 0 79 0;
#X connect 166 0 167 0;
#X connect 167 0 22 0;
#X connect 169 0 206 0;
#X connect 170 0 54 0;
#X connect 171 0 92 0;
#X connect 172 0 56 0;
#X connect 174 0 83 0;
#X connect 176 0 138 0;
#X connect 177 0 137 0;
#X connect 179 0 144 1;
#X connect 181 0 104 0;
#X connect 181 0 104 1;
#X connect 182 0 42 0;
#X connect 182 0 42 1;
#X connect 185 0 99 0;
#X connect 185 0 99 1;
#X connect 187 0 100 0;
#X connect 187 0 100 1;
#X connect 188 0 148 0;
#X connect 189 0 84 0;
#X connect 193 0 145 0;
#X connect 194 0 82 0;
#X connect 196 0 13 1;
#X connect 196 0 33 1;
#X connect 197 0 58 0;
#X connect 197 0 59 0;
#X connect 197 0 60 0;
#X connect 197 0 61 0;
#X connect 199 0 145 1;
#X connect 200 0 159 0;
#X connect 201 0 142 0;
#X connect 202 0 109 1;
#X connect 206 0 58 0;
#X connect 206 1 59 0;
#X connect 206 2 60 0;
#X connect 206 3 61 0;
#X connect 206 4 219 0;
#X connect 207 0 215 0;
#X connect 207 0 217 0;
#X connect 208 0 202 0;
#X connect 209 0 202 0;
#X connect 210 0 202 0;
#X connect 211 0 200 1;
#X connect 212 0 9 0;
#X connect 213 0 76 0;
#X connect 215 0 208 0;
#X connect 215 1 209 0;
#X connect 215 2 210 0;
#X connect 215 3 216 0;
#X connect 216 0 202 0;
#X connect 219 0 146 0;
#X connect 220 0 221 0;
#X connect 221 0 211 0;
