#N canvas 1600 87 1920 944 12;
#X msg 121 76 devices;
#X text 44 30 Patch Created for PD Vanilla. Add import mrpeach object
if using purr-data or pd-extended;
#X obj 125 238 slipdec;
#X obj 125 280 unpackOSC;
#X floatatom 201 357 10 0 0 0 - - -;
#X obj 125 325 routeOSC /data;
#X msg 143 108 open 32;
#X msg 170 130 close 32;
#X obj 632 827 metro 50;
#X obj 632 799 tgl 15 0 empty empty empty 17 7 0 10 -262144 -1 -1 1
1;
#X obj 632 863 tabwrite~ out;
#X obj 597 679 *~;
#N canvas 0 50 450 250 (subpatch) 0;
#X array out 100 float 3;
#A 0 0 0 0 0 0 0 0 0 0 0 0 0 0 0 0 0 0 0 0 0 0 0 0 0 0 0 0 0 0 0 0
0 0 0 0 0 0 0 0 0 0 0 0 0 0 0 0 0 0 0 0 0 0 0 0 0 0 0 0 0 0 0 0 0 0
0 0 0 0 0 0 0 0 0 0 0 0 0 0 0 0 0 0 0 0 0 0 0 0 0 0 0 0 0 0 0 0 0 0
0;
#X coords 0 1 100 -1 200 140 1;
#X restore 1612 78 graph;
#X obj 1345 611 hsl 128 15 0 0.75 0 0 empty empty empty -2 -8 0 10
-262144 -1 -1 12300 1;
#X floatatom 1366 667 5 0 0 0 - - -;
#X msg 1337 541 0;
#X text 1378 544 mute;
#X text 1395 583 volume;
#X floatatom 575 60 5 0 0 0 - - -;
#N canvas 0 50 450 250 (subpatch) 0;
#X array out2 100 float 3;
#A 0 5e-05 500 1000 1000 500 1000 500 1000 1000 500.001 1000 1000 1000
500 1000 500 1000 1000 1000 1000 1000 500 1000 1000 500 1000 500 500.001
1000 1000 1000 1000 500 500 1000 200 1000 500 500 1000 1000 1000 1000
1000 1000 500 500 500 500 500 1000 500 1000 1000 1000 500 1000 500
1000 1000 500 1000 500 1000 1000 500 1000 500 1000 500.001 1000 1000
500 500.001 1000 1000 1000 1000 500.001 500 1000 1000 500.001 1000
500 500 1000 1000 500 1000 500.001 1000 500 1000 500 1000 500 1000
500 1000;
#X coords 0 1 100 -1 200 140 1 0 0;
#X restore 1638 253 graph;
#X obj 575 27 / 120000;
#X obj 572 94 hsl 128 15 110 1200 0 0 empty empty empty -2 -8 0 10
-262144 -1 -1 4000 1;
#X obj 1114 251 bng 15 250 50 0 empty empty empty 17 7 0 10 -262144
-1 -1;
#X obj 1217 106 hsl 128 15 0 1 0 0 empty empty empty -2 -8 0 10 -262144
-1 -1 7100 1;
#X obj 909 164 moses \$2;
#X obj 1149 463 vline~;
#X text 1252 79 sensivity;
#X text 648 110 frequency;
#X obj 595 748 dac~;
#X obj 1271 225 hsl 50 15 0 0.6 0 0 empty empty empty -2 -8 0 10 -262144
-1 -1 4900 1;
#X obj 1273 273 hsl 50 15 0 1000 0 0 empty empty empty -2 -8 0 10 -262144
-1 -1 100 1;
#X obj 1270 321 hsl 50 15 0 2000 0 0 empty empty empty -2 -8 0 10 -262144
-1 -1 1700 1;
#X floatatom 1268 244 5 0 0 0 - - -;
#X floatatom 1268 295 5 0 0 0 - - -;
#X floatatom 1267 345 5 0 0 0 - - -;
#X text 1334 228 attack level;
#X text 1338 276 attack speed;
#X text 1296 194 ADSR envelope;
#X obj 879 318 noise~;
#X obj 860 429 +~;
#X obj 159 438 t b b;
#X floatatom 149 506 8 0 0 0 - - -;
#X obj 161 608 /;
#X floatatom 177 643 10 0 0 0 - - -;
#X obj 197 389 bng 15 250 50 0 empty empty empty 17 7 0 10 -262144
-1 -1;
#X text 82 642 sample rate;
#X text 154 410 check reception speed;
#X obj 176 668 tabwrite out2;
#X obj 773 190 osc~;
#X obj 591 397 *~ 2;
#X obj 591 428 clip~ 0 1;
#X obj 690 395 *~ 2;
#X obj 690 426 clip~ 0 1;
#X obj 591 314 phasor~;
#X obj 690 314 phasor~;
#X obj 690 279 * -1;
#X msg 629 284 0;
#X obj 396 390 *~ 2;
#X obj 396 420 clip~ 0 1;
#X obj 495 387 *~ 2;
#X obj 495 418 clip~ 0 1;
#X obj 396 302 phasor~;
#X obj 495 328 phasor~;
#X obj 495 299 * -1;
#X msg 494 255 0;
#X obj 690 363 -~ 0.5;
#X obj 396 357 -~ 0.5;
#X obj 495 355 -~ 0.5;
#X obj 591 365 -~ 0.5;
#X floatatom 629 252 5 0 0 0 - - -;
#X obj 534 292 + 0.5;
#X text 875 292 noise attack;
#X text 485 180 2nd harmonic;
#X text 658 196 3rd harmonic;
#X text 492 160 SQUARE WAVE;
#X text 638 164 TRIANGLE WAVE;
#X floatatom 493 213 5 0 0 0 - - -;
#X obj 449 486 +~;
#X obj 643 484 +~;
#X obj 469 514 *~;
#X obj 508 489 hsl 33 14 0 1 0 0 empty empty empty -2 -8 0 10 -262144
-1 -1 0 1;
#X obj 648 515 *~;
#X obj 687 490 hsl 33 14 0 1 0 0 empty empty empty -2 -8 0 10 -262144
-1 -1 3200 1;
#X obj 878 404 *~;
#X obj 917 368 hsl 33 14 0 1 0 0 empty empty empty -2 -8 0 10 -262144
-1 -1 0 1;
#X obj 777 240 *~;
#X obj 822 200 hsl 33 14 0 1 0 0 empty empty empty -2 -8 0 10 -262144
-1 -1 3200 1;
#X obj 1152 393 pack f f f f;
#X obj 1271 369 hsl 50 15 0 500 0 0 empty empty empty -2 -8 0 10 -262144
-1 -1 200 1;
#X floatatom 1268 392 5 0 0 0 - - -;
#X text 1343 323 sustain speed;
#X text 1342 365 decay speed;
#X obj 1024 261 bng 15 250 50 0 empty empty empty 17 7 0 10 -262144
-1 -1;
#X msg 1199 176 0;
#X obj 121 391 bng 15 250 50 0 empty empty empty 17 7 0 10 -262144
-1 -1;
#X obj 149 472 timer;
#X obj 149 530 * 1000;
#X msg 119 571 1;
#X floatatom 205 560 5 0 0 0 - - -;
#X obj 125 187 comport 32 9600;
#X msg 1152 428 \$1 \$2 \, 0.5 100 \$3 \, 0 200 \$4;
#X obj 1578 572 hsl 50 15 0 0.6 0 0 empty empty empty -2 -8 0 10 -262144
-1 -1 0 1;
#X obj 1580 620 hsl 50 15 0 300 0 0 empty empty empty -2 -8 0 10 -262144
-1 -1 0 1;
#X obj 1577 668 hsl 50 15 0 2000 0 0 empty empty empty -2 -8 0 10 -262144
-1 -1 0 1;
#X floatatom 1575 591 5 0 0 0 - - -;
#X floatatom 1575 642 5 0 0 0 - - -;
#X floatatom 1574 692 5 0 0 0 - - -;
#X text 1641 575 attack level;
#X text 1645 623 attack speed;
#X text 1603 541 ADSR envelope;
#X obj 1578 718 hsl 50 15 0 1000 0 0 empty empty empty -2 -8 0 10 -262144
-1 -1 0 1;
#X floatatom 1575 739 5 0 0 0 - - -;
#X text 1650 670 sustain speed;
#X text 1649 712 decay speed;
#X msg 1506 523 0;
#X obj 872 834 metro 50;
#X obj 872 806 tgl 15 0 empty empty empty 17 7 0 10 -262144 -1 -1 0
1;
#X obj 872 870 tabwrite~ out2;
#X obj 1053 6 hradio 15 1 0 2 empty empty empty 0 -8 0 10 -262144 -1
-1 0;
#X floatatom 1027 52 5 0 0 0 - - -;
#X obj 1017 161 moses \$2;
#X floatatom 807 81 5 0 0 0 - - -;
#X floatatom 914 81 5 0 0 0 - - -;
#X obj 818 36 demux 0 1;
#X obj 1096 73 bng 15 250 50 0 empty empty empty 17 7 0 10 -262144
-1 -1;
#X obj 597 708 *~ 0.75;
#X text 1108 -1 trigger select;
#X text 1110 19 0 - trigger when touched;
#X text 1111 35 1 -mute when touched;
#X obj 878 343 hip~ 1760;
#X obj 452 179 * 2;
#X obj 631 196 * 3;
#X connect 0 0 99 0;
#X connect 2 0 3 0;
#X connect 2 1 94 0;
#X connect 3 0 5 0;
#X connect 4 0 20 0;
#X connect 4 0 44 0;
#X connect 5 0 4 0;
#X connect 6 0 99 0;
#X connect 7 0 99 0;
#X connect 8 0 10 0;
#X connect 9 0 8 0;
#X connect 11 0 125 0;
#X connect 13 0 14 0;
#X connect 13 0 125 1;
#X connect 15 0 13 0;
#X connect 18 0 123 0;
#X connect 20 0 18 0;
#X connect 21 0 48 0;
#X connect 21 0 130 0;
#X connect 21 0 131 0;
#X connect 22 0 29 0;
#X connect 22 0 30 0;
#X connect 22 0 31 0;
#X connect 22 0 88 0;
#X connect 23 0 24 1;
#X connect 23 0 120 1;
#X connect 24 0 92 0;
#X connect 24 1 22 0;
#X connect 25 0 11 1;
#X connect 29 0 32 0;
#X connect 29 0 87 0;
#X connect 30 0 33 0;
#X connect 30 0 87 1;
#X connect 31 0 34 0;
#X connect 31 0 87 2;
#X connect 38 0 129 0;
#X connect 39 0 11 0;
#X connect 40 0 95 0;
#X connect 40 1 95 1;
#X connect 41 0 96 0;
#X connect 42 0 43 0;
#X connect 43 0 47 0;
#X connect 48 0 85 0;
#X connect 49 0 50 0;
#X connect 50 0 78 0;
#X connect 51 0 52 0;
#X connect 52 0 78 1;
#X connect 53 0 68 0;
#X connect 54 0 65 0;
#X connect 55 0 54 0;
#X connect 56 0 53 1;
#X connect 56 0 54 1;
#X connect 57 0 58 0;
#X connect 58 0 77 0;
#X connect 59 0 60 0;
#X connect 60 0 77 1;
#X connect 61 0 66 0;
#X connect 62 0 67 0;
#X connect 63 0 62 0;
#X connect 64 0 61 1;
#X connect 64 0 70 0;
#X connect 65 0 51 0;
#X connect 66 0 57 0;
#X connect 67 0 59 0;
#X connect 68 0 49 0;
#X connect 69 0 56 0;
#X connect 70 0 62 1;
#X connect 76 0 64 0;
#X connect 77 0 79 0;
#X connect 78 0 81 0;
#X connect 79 0 11 0;
#X connect 80 0 79 1;
#X connect 81 0 11 0;
#X connect 82 0 81 1;
#X connect 83 0 39 1;
#X connect 84 0 83 1;
#X connect 85 0 39 0;
#X connect 86 0 85 1;
#X connect 87 0 100 0;
#X connect 88 0 89 0;
#X connect 89 0 87 3;
#X connect 93 0 29 0;
#X connect 93 0 30 0;
#X connect 93 0 31 0;
#X connect 93 0 88 0;
#X connect 94 0 40 0;
#X connect 95 0 41 0;
#X connect 96 0 98 0;
#X connect 97 0 42 0;
#X connect 98 0 42 1;
#X connect 99 0 2 0;
#X connect 100 0 25 0;
#X connect 101 0 104 0;
#X connect 102 0 105 0;
#X connect 103 0 106 0;
#X connect 110 0 111 0;
#X connect 114 0 101 0;
#X connect 114 0 102 0;
#X connect 114 0 103 0;
#X connect 114 0 110 0;
#X connect 115 0 117 0;
#X connect 116 0 115 0;
#X connect 118 0 119 0;
#X connect 118 0 123 1;
#X connect 118 0 124 0;
#X connect 120 0 22 0;
#X connect 120 1 92 0;
#X connect 121 0 24 0;
#X connect 122 0 120 0;
#X connect 123 0 121 0;
#X connect 123 1 122 0;
#X connect 124 0 23 0;
#X connect 125 0 28 0;
#X connect 125 0 28 1;
#X connect 125 0 10 0;
#X connect 129 0 83 0;
#X connect 130 0 61 0;
#X connect 130 0 63 0;
#X connect 130 0 76 0;
#X connect 131 0 55 0;
#X connect 131 0 53 0;
#X connect 131 0 69 0;
