#N canvas 0 87 1600 764 12;
#X msg 13 -609 devices;
#X text 13 -677 Patch Created for PD Vanilla. Add import mrpeach object
if using purr-data or pd-extended;
#X obj 12 -485 slipdec;
#X obj 12 -455 unpackOSC;
#X floatatom 177 -624 10 0 0 0 - - -;
#X obj 12 -426 routeOSC /data;
#X msg 35 -577 open 32;
#X msg 62 -555 close 32;
#X obj 670 6 metro 50;
#X obj 682 -14 tgl 15 0 empty empty empty 17 7 0 10 -262144 -1 -1 0
1;
#X obj 659 30 tabwrite~ out;
#X obj 657 -81 *~;
#N canvas 0 50 450 250 (subpatch) 0;
#X array out 100 float 3;
#A 0 0 0 0 0 0 0 0 0 0 0 0 0 0 0 0 0 0 0 0 0 0 0 0 0 0 0 0 0 0 0 0
0 0 0 0 0 0 0 0 0 0 0 0 0 0 0 0 0 0 0 0 0 0 0 0 0 0 0 0 0 0 0 0 0 0
0 0 0 0 0 0 0 0 0 0 0 0 0 0 0 0 0 0 0 0 0 0 0 0 0 0 0 0 0 0 0 0 0 0
0;
#X coords 0 1 100 -1 200 140 1;
#X restore 11 -117 graph;
#X msg 1090 -300 0;
#X text 1090 -321 mute;
#X text 1051 -98 volume;
#X floatatom 337 -574 5 0 0 0 - - -;
#N canvas 0 50 450 250 (subpatch) 0;
#X array out2 100 float 3;
#A 0 0 0 0 0 0 0 0 0 0 0 0 0 0 0 0 0 0 0 0 0 0 0 0 0 0 0 0 0 0 0 0
0 0 0 0 0 0 0 0 0 0 0 0 0 0 0 0 0 0 0 0 0 0 0 0 0 0 0 0 0 0 0 0 0 0
0 0 0 0 0 0 0 0 0 0 0 0 0 0 0 0 0 0 0 0 0 0 0 0 0 0 0 0 0 0 0 0 0 0
0;
#X coords 0 1 100 -1 200 140 1 0 0;
#X restore 216 -115 graph;
#X obj 284 -621 / 120000;
#X obj 1490 -300 bng 15 250 50 0 empty empty empty 17 7 0 10 -262144
-1 -1;
#X obj 1156 -481 hsl 128 15 0 1 0 0 empty empty empty -2 -8 0 10 -262144
-1 -1 0 1;
#X obj 1350 -450 moses \$2;
#X obj 1286 -32 vline~;
#X text 1181 -508 sensivity;
#X text 537 -614 frequency;
#X obj 554 28 dac~;
#X text 1152 -286 attack level, f 7;
#X text 1225 -287 attack speed, f 6;
#X text 1228 -392 ADSR envelope;
#X obj 813 -291 noise~;
#X obj 759 -169 +~;
#X obj 177 -556 t b b;
#X floatatom 167 -488 8 0 0 0 - - -;
#X obj 179 -386 /;
#X floatatom 179 -354 10 0 0 0 - - -;
#X obj 176 -597 bng 15 250 50 0 empty empty empty 17 7 0 10 -262144
-1 -1;
#X text 209 -379 sample rate;
#X text 172 -584 check reception speed;
#X obj 178 -329 tabwrite out2;
#X obj 743 -418 osc~;
#X obj 543 -242 *~ 2;
#X obj 543 -211 clip~ 0 1;
#X obj 642 -244 *~ 2;
#X obj 642 -213 clip~ 0 1;
#X obj 543 -325 phasor~;
#X obj 642 -325 phasor~;
#X obj 642 -360 * -1;
#X msg 581 -355 0;
#X obj 319 -253 *~ 2;
#X obj 319 -223 clip~ 0 1;
#X obj 418 -256 *~ 2;
#X obj 418 -225 clip~ 0 1;
#X obj 320 -314 phasor~;
#X obj 418 -315 phasor~;
#X obj 418 -344 * -1;
#X msg 417 -388 0;
#X obj 642 -276 -~ 0.5;
#X obj 319 -286 -~ 0.5;
#X obj 418 -288 -~ 0.5;
#X obj 543 -274 -~ 0.5;
#X floatatom 581 -387 5 0 0 0 - - -;
#X obj 456 -345 + 0.5;
#X text 386 -475 2nd harmonic;
#X text 606 -427 3rd harmonic;
#X text 393 -495 SQUARE WAVE;
#X text 600 -447 TRIANGLE WAVE;
#X floatatom 416 -430 5 0 0 0 - - -;
#X obj 458 -146 +~;
#X obj 658 -152 +~;
#X obj 491 -145 *~;
#X obj 657 -117 *~;
#X obj 812 -223 *~;
#X obj 745 -218 *~;
#X obj 1285 -95 pack f f f f, f 25;
#X obj 1507 -344 bng 15 250 50 0 empty empty empty 17 7 0 10 -262144
-1 -1;
#X obj 138 -559 bng 15 250 50 0 empty empty empty 17 7 0 10 -262144
-1 -1;
#X obj 167 -522 timer;
#X obj 167 -464 * 1000;
#X msg 175 -425 1;
#X floatatom 223 -434 5 0 0 0 - - -;
#X obj 14 -520 comport 32 9600;
#X msg 1286 -67 \$1 \$2 \, 0.5 100 \$3 \, 0 200 \$4;
#X obj 1071 -3 metro 50;
#X obj 1069 -26 tgl 15 0 empty empty empty 17 7 0 10 -262144 -1 -1
0 1;
#X obj 1070 27 tabwrite~ out2;
#X obj 1131 -608 hradio 15 1 0 2 empty empty empty 0 -8 0 10 -262144
-1 -1 0;
#X floatatom 1170 -612 5 0 0 0 - - -;
#X obj 1423 -451 moses \$2;
#X floatatom 1350 -484 5 0 0 0 - - -;
#X floatatom 1412 -483 5 0 0 0 - - -;
#X obj 1346 -560 demux 0 1;
#X obj 1134 -483 bng 15 250 50 0 empty empty empty 17 7 0 10 -262144
-1 -1;
#X obj 658 -51 *~ 0.75;
#X text 1250 -639 trigger select;
#X text 1252 -619 0 - trigger when touched;
#X text 1253 -603 1 -mute when touched;
#X obj 812 -266 hip~ 1760;
#X obj 317 -492 * 2;
#X obj 542 -491 * 3;
#X obj 918 -27 freeverb~;
#X obj 1007 27 dac~;
#X msg 925 -238 wet \$1;
#X msg 947 -267 dry \$1;
#X msg 973 -293 roomsize \$1;
#X obj 582 -551 mtof;
#X floatatom 649 -522 5 0 0 0 - - -;
#X obj 692 -706 udpreceive 54321;
#X obj 691 -680 oscparse;
#X obj 761 -681 list trim;
#X obj 498 -589 hsl 128 15 21 108 0 0 empty empty empty -2 -8 0 10
-262144 -1 -1 0 1;
#X obj 494 -617 + 21;
#X obj 493 -645 route frequency;
#X floatatom 613 -645 5 0 0 0 - - -;
#X obj 977 -586 route wet dry roomsize volume, f 17;
#X obj 1074 -656 route trigger sensivity;
#X obj 663 -583 route square triangle sine noise;
#X obj 1152 -364 route at_volume attack_sp sustain decay;
#X obj 1207 -314 vsl 15 128 0 1 0 0 empty empty empty 0 -9 0 10 -262144
-1 -1 9979 1;
#X obj 1276 -314 vsl 15 128 0 1000 0 0 empty empty empty 0 -9 0 10
-262144 -1 -1 12 1;
#X obj 1358 -313 vsl 15 128 0 127 0 0 empty empty empty 0 -9 0 10 -262144
-1 -1 94 1;
#X obj 1436 -315 vsl 15 128 0 500 0 0 empty empty empty 0 -9 0 10 -262144
-1 -1 3 1;
#X text 1298 -282 sustain;
#X text 1388 -284 decay;
#X floatatom 1230 -313 5 0 0 0 - - -;
#X floatatom 1304 -313 5 0 0 0 - - -;
#X floatatom 1389 -310 5 0 0 0 - - -;
#X floatatom 1165 -313 5 0 0 0 - - -;
#X obj 499 -339 vsl 15 128 0 1 0 0 empty empty empty 0 -9 0 10 -262144
-1 -1 726 1;
#X obj 885 -331 vsl 15 128 0 1 0 0 empty empty empty 0 -9 0 10 -262144
-1 -1 91 1;
#X obj 783 -332 vsl 15 128 0 1 0 0 empty empty empty 0 -9 0 10 -262144
-1 -1 91 1;
#X obj 716 -330 vsl 15 128 0 1 0 0 empty empty empty 0 -9 0 10 -262144
-1 -1 181 1;
#X text 860 -194 noise amount, f 7;
#X text 740 -459 SINE WAVE, f 4;
#X obj 929 -450 vsl 15 128 0 1 0 0 empty empty empty 0 -9 0 10 -262144
-1 -1 7847 1;
#X obj 978 -448 vsl 15 128 0 1 0 0 empty empty empty 0 -9 0 10 -262144
-1 -1 3931 1;
#X obj 954 -450 vsl 15 128 0 1 0 0 empty empty empty 0 -9 0 10 -262144
-1 -1 6965 1;
#X obj 1068 -266 vsl 15 128 0 0.75 0 0 empty empty empty 0 -9 0 10
-262144 -1 -1 0 1;
#X floatatom 1054 -120 5 0 0 0 - - -;
#X connect 0 0 80 0;
#X connect 2 0 3 0;
#X connect 2 1 75 0;
#X connect 3 0 5 0;
#X connect 4 0 18 0;
#X connect 4 0 35 0;
#X connect 5 0 4 0;
#X connect 6 0 80 0;
#X connect 7 0 80 0;
#X connect 8 0 10 0;
#X connect 9 0 8 0;
#X connect 11 0 92 0;
#X connect 13 0 136 0;
#X connect 16 0 90 0;
#X connect 18 0 16 0;
#X connect 19 0 117 0;
#X connect 19 0 118 0;
#X connect 19 0 119 0;
#X connect 19 0 120 0;
#X connect 20 0 21 1;
#X connect 20 0 87 1;
#X connect 21 0 74 0;
#X connect 21 1 19 0;
#X connect 22 0 11 1;
#X connect 29 0 96 0;
#X connect 30 0 11 0;
#X connect 31 0 76 0;
#X connect 31 1 76 1;
#X connect 32 0 77 0;
#X connect 33 0 34 0;
#X connect 34 0 38 0;
#X connect 39 0 72 0;
#X connect 40 0 41 0;
#X connect 41 0 68 0;
#X connect 42 0 43 0;
#X connect 43 0 68 1;
#X connect 44 0 59 0;
#X connect 45 0 56 0;
#X connect 46 0 45 0;
#X connect 47 0 44 1;
#X connect 47 0 45 1;
#X connect 48 0 49 0;
#X connect 49 0 67 0;
#X connect 50 0 51 0;
#X connect 51 0 67 1;
#X connect 52 0 57 0;
#X connect 53 0 58 0;
#X connect 54 0 53 0;
#X connect 55 0 52 1;
#X connect 55 0 61 0;
#X connect 56 0 42 0;
#X connect 57 0 48 0;
#X connect 58 0 50 0;
#X connect 59 0 40 0;
#X connect 60 0 47 0;
#X connect 61 0 53 1;
#X connect 66 0 55 0;
#X connect 67 0 69 0;
#X connect 68 0 70 0;
#X connect 69 0 11 0;
#X connect 70 0 11 0;
#X connect 71 0 30 1;
#X connect 72 0 30 0;
#X connect 72 0 11 0;
#X connect 73 0 81 0;
#X connect 75 0 31 0;
#X connect 76 0 32 0;
#X connect 77 0 79 0;
#X connect 78 0 33 0;
#X connect 79 0 33 1;
#X connect 80 0 2 0;
#X connect 81 0 22 0;
#X connect 82 0 84 0;
#X connect 83 0 82 0;
#X connect 85 0 86 0;
#X connect 85 0 90 1;
#X connect 85 0 91 0;
#X connect 87 0 19 0;
#X connect 87 1 74 0;
#X connect 88 0 21 0;
#X connect 89 0 87 0;
#X connect 90 0 88 0;
#X connect 90 1 89 0;
#X connect 91 0 20 0;
#X connect 92 0 25 0;
#X connect 92 0 25 1;
#X connect 92 0 10 0;
#X connect 92 0 99 0;
#X connect 92 0 99 1;
#X connect 96 0 71 0;
#X connect 97 0 52 0;
#X connect 97 0 54 0;
#X connect 97 0 66 0;
#X connect 98 0 46 0;
#X connect 98 0 44 0;
#X connect 98 0 60 0;
#X connect 99 0 100 0;
#X connect 99 0 84 0;
#X connect 99 1 100 1;
#X connect 101 0 99 0;
#X connect 102 0 99 0;
#X connect 103 0 99 0;
#X connect 104 0 97 0;
#X connect 104 0 98 0;
#X connect 104 0 39 0;
#X connect 104 0 105 0;
#X connect 106 0 107 0;
#X connect 107 0 108 0;
#X connect 108 0 111 0;
#X connect 108 0 113 0;
#X connect 108 0 114 0;
#X connect 108 0 115 0;
#X connect 108 0 116 0;
#X connect 109 0 104 0;
#X connect 110 0 109 0;
#X connect 111 0 112 0;
#X connect 111 0 110 0;
#X connect 113 0 133 0;
#X connect 113 1 135 0;
#X connect 113 2 134 0;
#X connect 113 3 136 0;
#X connect 114 0 85 0;
#X connect 114 1 20 0;
#X connect 115 0 127 0;
#X connect 115 1 130 0;
#X connect 115 2 129 0;
#X connect 115 3 128 0;
#X connect 116 0 117 0;
#X connect 116 1 118 0;
#X connect 116 2 119 0;
#X connect 116 3 120 0;
#X connect 117 0 73 0;
#X connect 117 0 126 0;
#X connect 118 0 73 1;
#X connect 118 0 123 0;
#X connect 119 0 73 2;
#X connect 119 0 124 0;
#X connect 120 0 73 3;
#X connect 120 0 125 0;
#X connect 127 0 69 1;
#X connect 128 0 71 1;
#X connect 129 0 72 1;
#X connect 130 0 70 1;
#X connect 133 0 101 0;
#X connect 134 0 103 0;
#X connect 135 0 102 0;
#X connect 136 0 92 1;
#X connect 136 0 137 0;
