#N canvas 0 87 1600 764 12;
#X msg 13 -609 devices;
#X text 13 -677 Patch Created for PD Vanilla. Add import mrpeach object
if using purr-data or pd-extended;
#X obj 12 -485 slipdec;
#X obj 12 -455 unpackOSC;
#X floatatom 177 -624 10 0 0 0 - - -;
#X obj 12 -426 routeOSC /data;
#X msg 35 -577 open 32;
#X msg 62 -555 close 32;
#X obj 670 6 metro 50;
#X obj 682 -14 tgl 15 0 empty empty empty 17 7 0 10 -262144 -1 -1 1
1;
#X obj 659 30 tabwrite~ out;
#X obj 657 -81 *~;
#N canvas 0 50 450 250 (subpatch) 0;
#X array out 100 float 3;
#A 0 0 0 0 0 0 0 0 0 0 0 0 0 0 0 0 0 0 0 0 0 0 0 0 0 0 0 0 0 0 0 0
0 0 0 0 0 0 0 0 0 0 0 0 0 0 0 0 0 0 0 0 0 0 0 0 0 0 0 0 0 0 0 0 0 0
0 0 0 0 0 0 0 0 0 0 0 0 0 0 0 0 0 0 0 0 0 0 0 0 0 0 0 0 0 0 0 0 0 0
0;
#X coords 0 1 100 -1 200 140 1;
#X restore 11 -117 graph;
#X msg 1106 -347 0;
#X text 1106 -368 mute;
#X text 1097 -167 volume;
#X floatatom 337 -574 5 0 0 0 - - -;
#N canvas 0 50 450 250 (subpatch) 0;
#X array out2 100 float 3;
#A 0 0 0 0 0 0 0 0 0 0 0 0 0 0 0 0 0 0 0 0 0 0 0 0 0 0 0 0 0 0 0 0
0 0 0 0 0 0 0 0 0 0 0 0 0 0 0 0 0 0 0 0 0 0 0 0 0 0 0 0 0 0 0 0 0 0
0 0 0 0 0 0 0 0 0 0 0 0 0 0 0 0 0 0 0 0 0 0 0 0 0 0 0 0 0 0 0 0 0 0
0;
#X coords 0 1 100 -1 200 140 1 0 0;
#X restore 216 -115 graph;
#X obj 284 -621 / 120000;
#X obj 1478 -331 bng 15 250 50 0 empty empty empty 17 7 0 10 -262144
-1 -1;
#X obj 1172 -484 hsl 128 15 0 1 0 0 empty empty empty -2 -8 0 10 -262144
-1 -1 5650 1;
#X obj 1350 -450 moses \$2;
#X obj 1286 -32 vline~;
#X text 1181 -508 sensivity;
#X text 537 -614 frequency;
#X obj 554 28 dac~;
#X text 1152 -286 attack level, f 7;
#X text 1225 -287 attack speed, f 6;
#X text 1228 -392 ADSR envelope;
#X obj 758 -402 noise~;
#X obj 682 -244 +~;
#X obj 177 -556 t b b;
#X floatatom 167 -488 8 0 0 0 - - -;
#X obj 179 -386 /;
#X floatatom 179 -354 10 0 0 0 - - -;
#X obj 176 -597 bng 15 250 50 0 empty empty empty 17 7 0 10 -262144
-1 -1;
#X text 209 -379 sample rate;
#X text 172 -584 check reception speed;
#X obj 178 -329 tabwrite out2;
#X obj 651 -407 osc~;
#X obj 362 -290 *~;
#X obj 481 -284 *~;
#X obj 757 -286 *~;
#X obj 654 -284 *~;
#X obj 1285 -95 pack f f f f, f 25;
#X obj 1507 -344 bng 15 250 50 0 empty empty empty 17 7 0 10 -262144
-1 -1;
#X obj 138 -559 bng 15 250 50 0 empty empty empty 17 7 0 10 -262144
-1 -1;
#X obj 167 -522 timer;
#X obj 167 -464 * 1000;
#X msg 175 -425 1;
#X floatatom 223 -434 5 0 0 0 - - -;
#X obj 14 -520 comport 32 9600;
#X msg 1286 -67 \$1 \$2 \, 0.5 100 \$3 \, 0 200 \$4;
#X obj 1002 0 metro 50;
#X obj 1000 -23 tgl 15 0 empty empty empty 17 7 0 10 -262144 -1 -1
1 1;
#X obj 1001 30 tabwrite~ out2;
#X obj 1131 -608 hradio 15 1 0 2 empty empty empty 0 -8 0 10 -262144
-1 -1 0;
#X floatatom 1170 -612 5 0 0 0 - - -;
#X obj 1423 -451 moses \$2;
#X floatatom 1350 -484 5 0 0 0 - - -;
#X floatatom 1412 -483 5 0 0 0 - - -;
#X obj 1288 -541 demux 0 1;
#X obj 1134 -483 bng 15 250 50 0 empty empty empty 17 7 0 10 -262144
-1 -1;
#X obj 658 -51 *~ 0.75;
#X text 1250 -639 trigger select;
#X text 1252 -619 0 - trigger when touched;
#X text 1253 -603 1 -mute when touched;
#X obj 757 -377 hip~ 1760;
#X obj 918 -27 freeverb~;
#X obj 932 26 dac~;
#X msg 847 -283 wet \$1;
#X msg 908 -284 dry \$1;
#X msg 965 -285 roomsize \$1;
#X obj 493 -527 mtof;
#X floatatom 635 -510 5 0 0 0 - - -;
#X obj 692 -706 udpreceive 54321;
#X obj 691 -680 oscparse;
#X obj 761 -681 list trim;
#X obj 498 -589 hsl 128 15 21 108 0 0 empty empty empty -2 -8 0 10
-262144 -1 -1 6359 1;
#X obj 494 -617 + 21;
#X obj 493 -645 route frequency;
#X floatatom 613 -645 5 0 0 0 - - -;
#X obj 883 -505 route wet dry roomsize volume, f 17;
#X obj 1074 -656 route trigger sensivity;
#X obj 663 -583 route square triangle sine noise;
#X obj 1152 -364 route at_volume attack_sp sustain decay;
#X obj 1207 -314 vsl 15 128 0 1 0 0 empty empty empty 0 -9 0 10 -262144
-1 -1 6595 1;
#X obj 1276 -314 vsl 15 128 0 1000 0 0 empty empty empty 0 -9 0 10
-262144 -1 -1 7 1;
#X obj 1358 -313 vsl 15 128 0 127 0 0 empty empty empty 0 -9 0 10 -262144
-1 -1 70 1;
#X obj 1436 -315 vsl 15 128 0 500 0 0 empty empty empty 0 -9 0 10 -262144
-1 -1 18 1;
#X text 1298 -282 sustain;
#X text 1388 -284 decay;
#X floatatom 1230 -313 5 0 0 0 - - -;
#X floatatom 1304 -313 5 0 0 0 - - -;
#X floatatom 1389 -310 5 0 0 0 - - -;
#X floatatom 1165 -313 5 0 0 0 - - -;
#X obj 453 -441 vsl 15 128 0 1 0 0 empty empty empty 0 -9 0 10 -262144
-1 -1 12700 1;
#X obj 835 -439 vsl 15 128 0 1 0 0 empty empty empty 0 -9 0 10 -262144
-1 -1 9500 1;
#X obj 703 -440 vsl 15 128 0 1 0 0 empty empty empty 0 -9 0 10 -262144
-1 -1 11200 1;
#X obj 589 -441 vsl 15 128 0 1 0 0 empty empty empty 0 -9 0 10 -262144
-1 -1 5800 1;
#X text 769 -344 noise amount, f 7;
#X text 666 -380 SINE WAVE, f 4;
#X obj 884 -439 vsl 15 128 0 1 0 0 empty empty empty 0 -9 0 10 -262144
-1 -1 4739 1;
#X obj 973 -443 vsl 15 128 0 1 0 0 empty empty empty 0 -9 0 10 -262144
-1 -1 5767 1;
#X obj 926 -441 vsl 15 128 0 1 0 0 empty empty empty 0 -9 0 10 -262144
-1 -1 6979 1;
#X obj 1074 -329 vsl 15 128 0 0.75 0 0 empty empty empty 0 -9 0 10
-262144 -1 -1 5200 1;
#X floatatom 1100 -189 5 0 0 0 - - -;
#X obj 362 -405 square_wave;
#X obj 481 -404 triangle_wave;
#X connect 0 0 51 0;
#X connect 2 0 3 0;
#X connect 2 1 46 0;
#X connect 3 0 5 0;
#X connect 4 0 18 0;
#X connect 4 0 35 0;
#X connect 5 0 4 0;
#X connect 6 0 51 0;
#X connect 7 0 51 0;
#X connect 8 0 10 0;
#X connect 9 0 8 0;
#X connect 11 0 63 0;
#X connect 13 0 105 0;
#X connect 16 0 61 0;
#X connect 18 0 16 0;
#X connect 19 0 86 0;
#X connect 19 0 87 0;
#X connect 19 0 88 0;
#X connect 19 0 89 0;
#X connect 20 0 21 1;
#X connect 20 0 58 1;
#X connect 21 0 45 0;
#X connect 21 1 19 0;
#X connect 22 0 11 1;
#X connect 29 0 67 0;
#X connect 30 0 11 0;
#X connect 31 0 47 0;
#X connect 31 1 47 1;
#X connect 32 0 48 0;
#X connect 33 0 34 0;
#X connect 34 0 38 0;
#X connect 39 0 43 0;
#X connect 40 0 11 0;
#X connect 41 0 11 0;
#X connect 42 0 30 1;
#X connect 43 0 30 0;
#X connect 43 0 11 0;
#X connect 44 0 52 0;
#X connect 46 0 31 0;
#X connect 47 0 32 0;
#X connect 48 0 50 0;
#X connect 49 0 33 0;
#X connect 50 0 33 1;
#X connect 51 0 2 0;
#X connect 52 0 22 0;
#X connect 53 0 55 0;
#X connect 54 0 53 0;
#X connect 56 0 57 0;
#X connect 56 0 61 1;
#X connect 56 0 62 0;
#X connect 58 0 19 0;
#X connect 58 1 45 0;
#X connect 59 0 21 0;
#X connect 60 0 58 0;
#X connect 61 0 59 0;
#X connect 61 1 60 0;
#X connect 62 0 20 0;
#X connect 63 0 25 0;
#X connect 63 0 25 1;
#X connect 63 0 10 0;
#X connect 63 0 68 0;
#X connect 63 0 68 1;
#X connect 67 0 42 0;
#X connect 68 0 69 0;
#X connect 68 0 55 0;
#X connect 68 1 69 1;
#X connect 70 0 68 0;
#X connect 71 0 68 0;
#X connect 72 0 68 0;
#X connect 73 0 39 0;
#X connect 73 0 74 0;
#X connect 73 0 107 0;
#X connect 73 0 108 0;
#X connect 75 0 76 0;
#X connect 76 0 77 0;
#X connect 77 0 80 0;
#X connect 77 0 82 0;
#X connect 77 0 83 0;
#X connect 77 0 84 0;
#X connect 77 0 85 0;
#X connect 78 0 73 0;
#X connect 79 0 78 0;
#X connect 80 0 81 0;
#X connect 80 0 79 0;
#X connect 82 0 102 0;
#X connect 82 1 104 0;
#X connect 82 2 103 0;
#X connect 82 3 105 0;
#X connect 83 0 56 0;
#X connect 83 1 20 0;
#X connect 84 0 96 0;
#X connect 84 1 99 0;
#X connect 84 2 98 0;
#X connect 84 3 97 0;
#X connect 85 0 86 0;
#X connect 85 1 87 0;
#X connect 85 2 88 0;
#X connect 85 3 89 0;
#X connect 86 0 44 0;
#X connect 86 0 95 0;
#X connect 87 0 44 1;
#X connect 87 0 92 0;
#X connect 88 0 44 2;
#X connect 88 0 93 0;
#X connect 89 0 44 3;
#X connect 89 0 94 0;
#X connect 96 0 40 1;
#X connect 97 0 42 1;
#X connect 98 0 43 1;
#X connect 99 0 41 1;
#X connect 102 0 70 0;
#X connect 103 0 72 0;
#X connect 104 0 71 0;
#X connect 105 0 63 1;
#X connect 105 0 106 0;
#X connect 107 0 40 0;
#X connect 108 0 41 0;
