#N canvas 163 267 733 531 10;
#X msg 214 76 close 0;
#X msg 207 32 open 0;
#X msg 62 57 ports;
#X msg 123 26 devices;
#X obj 215 227 mtof;
#X obj 277 331 osc~;
#X obj 286 403 output~;
#X obj 280 294 *~ 0.5;
#X obj 127 148 comport 0 9600;
#X obj 80 237 print;
#X connect 0 0 8 0;
#X connect 1 0 8 0;
#X connect 2 0 8 0;
#X connect 3 0 8 0;
#X connect 4 0 7 0;
#X connect 5 0 6 1;
#X connect 5 0 6 0;
#X connect 7 0 5 0;
#X connect 8 0 9 0;
#X connect 8 0 4 0;
