#N canvas 570 173 733 603 10;
#X msg 214 76 close 0;
#X msg 207 32 open 0;
#X msg 62 57 ports;
#X msg 123 26 devices;
#X obj 243 247 mtof;
#X obj 277 331 osc~;
#X obj 287 403 output~;
#X obj 280 294 *~ 0.5;
#X obj 127 148 comport 0 9600;
#X obj 251 183 hsl 128 15 1 255 0 0 empty empty empty -2 -8 0 10 -262144
-1 -1 200 1;
#X floatatom 364 233 5 0 0 0 - - -, f 5;
#X floatatom 79 261 5 0 0 0 - - -, f 5;
#X obj 110 323 * 0.5;
#X connect 0 0 8 0;
#X connect 1 0 8 0;
#X connect 2 0 8 0;
#X connect 3 0 8 0;
#X connect 4 0 7 0;
#X connect 5 0 6 1;
#X connect 5 0 6 0;
#X connect 7 0 5 0;
#X connect 8 0 9 0;
#X connect 8 0 11 0;
#X connect 9 0 10 0;
#X connect 11 0 12 0;
#X connect 12 0 4 0;
