#N canvas 924 141 673 541 12;
#X obj 120 331 *~ 2;
#X obj 120 361 clip~ 0 1;
#X obj 219 328 *~ 2;
#X obj 219 359 clip~ 0 1;
#X obj 121 270 phasor~;
#X obj 219 269 phasor~;
#X obj 219 240 * -1;
#X msg 218 196 0;
#X obj 120 298 -~ 0.5;
#X obj 219 296 -~ 0.5;
#X obj 257 239 + 0.5;
#X text 187 109 2nd harmonic;
#X text 194 89 SQUARE WAVE;
#X floatatom 217 154 5 0 0 0 - - -;
#X obj 259 438 +~;
#X obj 118 92 * 2;
#X obj 107 46 inlet;
#X obj 270 486 outlet~;
#X connect 0 0 1 0;
#X connect 1 0 14 0;
#X connect 2 0 3 0;
#X connect 3 0 14 1;
#X connect 4 0 8 0;
#X connect 5 0 9 0;
#X connect 6 0 5 0;
#X connect 7 0 4 1;
#X connect 7 0 10 0;
#X connect 8 0 0 0;
#X connect 9 0 2 0;
#X connect 10 0 5 1;
#X connect 13 0 7 0;
#X connect 14 0 17 0;
#X connect 15 0 4 0;
#X connect 15 0 6 0;
#X connect 15 0 13 0;
#X connect 16 0 15 0;
