#N canvas 754 242 844 410 12;
#X obj 100 254 *~ 2;
#X obj 100 285 clip~ 0 1;
#X obj 199 252 *~ 2;
#X obj 199 283 clip~ 0 1;
#X obj 99 184 phasor~;
#X obj 198 184 phasor~;
#X obj 198 149 * -1;
#X msg 137 154 0;
#X obj 199 220 -~ 0.5;
#X obj 100 222 -~ 0.5;
#X floatatom 137 122 5 0 0 0 - - -;
#X text 162 82 3rd harmonic;
#X text 156 62 TRIANGLE WAVE;
#X obj 158 336 +~;
#X obj 106 53 * 3;
#X obj 105 14 inlet;
#X obj 158 367 outlet~;
#X connect 0 0 1 0;
#X connect 1 0 13 0;
#X connect 2 0 3 0;
#X connect 3 0 13 1;
#X connect 4 0 9 0;
#X connect 5 0 8 0;
#X connect 6 0 5 0;
#X connect 7 0 4 1;
#X connect 7 0 5 1;
#X connect 8 0 2 0;
#X connect 9 0 0 0;
#X connect 10 0 7 0;
#X connect 13 0 16 0;
#X connect 14 0 6 0;
#X connect 14 0 4 0;
#X connect 14 0 10 0;
#X connect 15 0 14 0;
