#N canvas 1600 60 1920 1020 12;
#X obj 31 17 receive fromGUI;
#X obj 32 50 list trim;
#X obj 1437 478 send toNetwork;
#X msg 889 133 list /wet \$1;
#X msg 991 134 list /dry \$1;
#X msg 1101 135 list /roomsize \$1;
#X msg 107 136 list /volume \$1;
#X msg 520 134 list /sine \$1;
#X msg 238 135 list /frequency \$1;
#X msg 390 134 list /noise \$1;
#X floatatom 312 109 5 0 0 0 - - -;
#X floatatom 415 110 5 0 0 0 - - -;
#X floatatom 643 105 5 0 0 0 - - -;
#X floatatom 198 107 5 0 0 0 - - -;
#X floatatom 540 109 5 0 0 0 - - -;
#X msg 632 133 list /square \$1;
#X floatatom 767 104 5 0 0 0 - - -;
#X floatatom 881 105 5 0 0 0 - - -;
#X floatatom 989 107 5 0 0 0 - - -;
#X floatatom 1105 107 5 0 0 0 - - -;
#X msg 760 133 list /triangle \$1;
#X floatatom 1252 107 5 0 0 0 - - -;
#X floatatom 1394 107 5 0 0 0 - - -;
#X msg 1392 136 list /trigger \$1;
#X floatatom 119 478 5 0 0 0 - - -;
#X msg 108 507 list /at_volume \$1;
#X floatatom 200 431 5 0 0 0 - - -;
#X floatatom 286 380 5 0 0 0 - - -;
#X floatatom 380 293 5 0 0 0 - - -;
#X msg 189 460 list /attack_sp \$1;
#X msg 275 409 list /sustain \$1;
#X msg 369 323 list /decay \$1;
#X obj 81 251 route /at_volume /attack_sp /sustain /decay;
#X obj 249 20 route /volume /frequency /noise /sine /square /triangle
/wet /dry /roomsize /sensitivity /trigger, f 100;
#X msg 1250 136 list /sensitivity \$1;
#X connect 0 0 1 0;
#X connect 1 0 32 0;
#X connect 1 0 33 0;
#X connect 3 0 2 0;
#X connect 4 0 2 0;
#X connect 5 0 2 0;
#X connect 6 0 2 0;
#X connect 7 0 2 0;
#X connect 8 0 2 0;
#X connect 9 0 2 0;
#X connect 15 0 2 0;
#X connect 20 0 2 0;
#X connect 23 0 2 0;
#X connect 25 0 2 0;
#X connect 29 0 2 0;
#X connect 30 0 2 0;
#X connect 31 0 2 0;
#X connect 32 0 25 0;
#X connect 32 0 24 0;
#X connect 32 1 26 0;
#X connect 32 1 29 0;
#X connect 32 2 27 0;
#X connect 32 2 30 0;
#X connect 32 3 28 0;
#X connect 32 3 31 0;
#X connect 33 0 6 0;
#X connect 33 0 13 0;
#X connect 33 1 8 0;
#X connect 33 1 10 0;
#X connect 33 2 9 0;
#X connect 33 2 11 0;
#X connect 33 3 7 0;
#X connect 33 3 14 0;
#X connect 33 4 15 0;
#X connect 33 4 12 0;
#X connect 33 5 20 0;
#X connect 33 5 16 0;
#X connect 33 6 3 0;
#X connect 33 6 17 0;
#X connect 33 7 4 0;
#X connect 33 7 18 0;
#X connect 33 8 5 0;
#X connect 33 8 19 0;
#X connect 33 9 34 0;
#X connect 33 9 21 0;
#X connect 33 10 22 0;
#X connect 33 10 23 0;
#X connect 34 0 2 0;
