#N canvas 0 267 1600 764 12;
#X obj 31 17 receive fromGUI;
#X obj 32 50 list trim;
#X obj 795 710 send toNetwork;
#X msg 1438 213 list /wet \$1;
#X msg 1440 271 list /dry \$1;
#X msg 1446 332 list /roomsize \$1;
#X msg 41 144 list /volume \$1;
#X msg 454 142 list /sine \$1;
#X msg 172 143 list /frequency \$1;
#X msg 324 142 list /noise \$1;
#X floatatom 246 117 5 0 0 0 - - -;
#X floatatom 349 118 5 0 0 0 - - -;
#X floatatom 577 113 5 0 0 0 - - -;
#X floatatom 132 115 5 0 0 0 - - -;
#X floatatom 474 117 5 0 0 0 - - -;
#X msg 566 141 list /square \$1;
#X floatatom 701 112 5 0 0 0 - - -;
#X floatatom 1438 186 5 0 0 0 - - -;
#X floatatom 1441 242 5 0 0 0 - - -;
#X floatatom 1444 303 5 0 0 0 - - -;
#X msg 694 141 list /triangle \$1;
#X floatatom 1448 379 5 0 0 0 - - -;
#X floatatom 1450 445 5 0 0 0 - - -;
#X msg 1449 476 list /trigger \$1;
#X floatatom 59 631 5 0 0 0 - - -;
#X msg 48 660 list /at_volume \$1;
#X floatatom 140 584 5 0 0 0 - - -;
#X floatatom 226 533 5 0 0 0 - - -;
#X floatatom 320 446 5 0 0 0 - - -;
#X msg 129 613 list /attack_sp \$1;
#X msg 215 562 list /sustain \$1;
#X msg 309 476 list /decay \$1;
#X obj 21 404 route /at_volume /attack_sp /sustain /decay;
#X msg 1447 408 list /sensitivity \$1;
#X msg 1222 637 list /cutoff \$1;
#X floatatom 1283 611 5 0 0 0 - - -;
#X obj 185 77 route /volume /frequency /noise /sine /square /triangle
, f 60;
#X obj 30 79 s s_route;
#X obj 739 184 r s_route;
#X floatatom 759 272 5 0 0 0 - - -;
#X floatatom 858 272 5 0 0 0 - - -;
#X floatatom 998 282 5 0 0 0 - - -;
#X msg 737 304 list /hihat \$1;
#X obj 951 28 r s_route;
#X obj 21 372 r s_route;
#X msg 856 304 list /zabumba \$1;
#X msg 1000 307 list /shaker \$1;
#X obj 1286 545 r s_route;
#X obj 951 60 route /wet /dry /roomsize /sensitivity /trigger;
#X obj 1286 573 route /cutoff /pwmsynth;
#X floatatom 1370 610 5 0 0 0 - - -;
#X msg 1360 639 list /pwmsynth \$1;
#X obj 739 219 route /hihat /zabumba /shaker /cowbells /nosample;
#X floatatom 1169 249 5 0 0 0 - - -;
#X msg 1134 272 list /nosample \$1;
#X msg 1142 330 list /cowbells \$1;
#X floatatom 1155 301 5 0 0 0 - - -;
#X connect 0 0 1 0;
#X connect 1 0 36 0;
#X connect 1 0 37 0;
#X connect 3 0 2 0;
#X connect 4 0 2 0;
#X connect 5 0 2 0;
#X connect 6 0 2 0;
#X connect 7 0 2 0;
#X connect 8 0 2 0;
#X connect 9 0 2 0;
#X connect 15 0 2 0;
#X connect 20 0 2 0;
#X connect 23 0 2 0;
#X connect 25 0 2 0;
#X connect 29 0 2 0;
#X connect 30 0 2 0;
#X connect 31 0 2 0;
#X connect 32 0 25 0;
#X connect 32 0 24 0;
#X connect 32 1 26 0;
#X connect 32 1 29 0;
#X connect 32 2 27 0;
#X connect 32 2 30 0;
#X connect 32 3 28 0;
#X connect 32 3 31 0;
#X connect 33 0 2 0;
#X connect 34 0 2 0;
#X connect 36 0 6 0;
#X connect 36 0 13 0;
#X connect 36 1 8 0;
#X connect 36 1 10 0;
#X connect 36 2 9 0;
#X connect 36 2 11 0;
#X connect 36 3 7 0;
#X connect 36 3 14 0;
#X connect 36 4 15 0;
#X connect 36 4 12 0;
#X connect 36 5 20 0;
#X connect 36 5 16 0;
#X connect 38 0 52 0;
#X connect 42 0 2 0;
#X connect 43 0 48 0;
#X connect 44 0 32 0;
#X connect 45 0 2 0;
#X connect 46 0 2 0;
#X connect 47 0 49 0;
#X connect 48 0 3 0;
#X connect 48 0 17 0;
#X connect 48 1 18 0;
#X connect 48 1 4 0;
#X connect 48 2 19 0;
#X connect 48 2 5 0;
#X connect 48 3 21 0;
#X connect 48 3 33 0;
#X connect 48 4 22 0;
#X connect 48 4 23 0;
#X connect 49 0 35 0;
#X connect 49 0 34 0;
#X connect 49 1 50 0;
#X connect 49 1 51 0;
#X connect 51 0 2 0;
#X connect 52 0 39 0;
#X connect 52 0 42 0;
#X connect 52 1 40 0;
#X connect 52 1 45 0;
#X connect 52 2 41 0;
#X connect 52 2 46 0;
#X connect 52 3 55 0;
#X connect 52 3 56 0;
#X connect 52 4 53 0;
#X connect 52 4 54 0;
#X connect 54 0 2 0;
#X connect 55 0 2 0;
